<?xml version="1.0" encoding="utf-8"?>
<!-- Generator: Adobe Illustrator 16.0.4, SVG Export Plug-In . SVG Version: 6.00 Build 0)  -->
<!DOCTYPE svg PUBLIC "-//W3C//DTD SVG 1.1//EN" "http://www.w3.org/Graphics/SVG/1.1/DTD/svg11.dtd">
<svg version="1.1" id="icon" xmlns="http://www.w3.org/2000/svg" xmlns:xlink="http://www.w3.org/1999/xlink" x="0px" y="0px"
	 width="32px" height="32px" viewBox="0 0 32 32" enable-background="new 0 0 32 32" xml:space="preserve">
<g id="basket" opacity="0.5">
	<g>
		<path fill="#969696" d="M31.659,8.379c-0.187-0.265-0.489-0.422-0.812-0.422H9.624l-1.606-5.54C7.388,0.235,5.891,0,5.276,0H0.993
			C0.444,0,0,0.444,0,0.993c0,0.549,0.444,0.993,0.993,0.993h4.283c0.136,0,0.549,0,0.831,0.975l5.526,20.311
			c0.12,0.431,0.511,0.727,0.956,0.727h13.499c0.419,0,0.793-0.264,0.936-0.657l4.759-14.053
			C31.891,8.981,31.846,8.643,31.659,8.379z"/>
	</g>
</g>
</svg>
