<?xml version="1.0" encoding="utf-8"?>
<!-- Generator: Adobe Illustrator 16.0.4, SVG Export Plug-In . SVG Version: 6.00 Build 0)  -->
<!DOCTYPE svg PUBLIC "-//W3C//DTD SVG 1.1//EN" "http://www.w3.org/Graphics/SVG/1.1/DTD/svg11.dtd">
<svg version="1.1" id="icon" xmlns="http://www.w3.org/2000/svg" xmlns:xlink="http://www.w3.org/1999/xlink" x="0px" y="0px"
	 width="32px" height="32px" viewBox="0 0 32 32" enable-background="new 0 0 32 32" xml:space="preserve">
<g id="phone" opacity="0.5">
	<g>
		<path fill="#969696" d="M31.295,24.135c-0.49-0.344-5.846-3.904-6.502-4.307c-0.287-0.174-0.635-0.26-1.016-0.26
			c-0.488,0-1.031,0.143-1.562,0.42c-0.516,0.271-2.074,1.16-2.84,1.598c-0.674-0.473-2.254-1.684-4.746-4.178
			c-2.476-2.474-3.697-4.068-4.173-4.745c0.436-0.764,1.323-2.325,1.593-2.839c0.512-0.968,0.569-1.937,0.154-2.589
			c-0.39-0.615-3.937-5.994-4.303-6.5C7.558,0.258,6.94,0,6.269,0C5.74,0,5.178,0.16,4.691,0.5C4.644,0.532-0.062,3.945,0,5.885
			c0.174,5.451,5.471,11.857,9.884,16.271c4.413,4.414,10.819,9.713,16.292,9.889h0.045c1.916,0,5.285-4.646,5.316-4.693
			C32.422,26.09,32.1,24.699,31.295,24.135z"/>
	</g>
</g>
</svg>
