<?xml version="1.0" encoding="utf-8"?>
<!-- Generator: Adobe Illustrator 16.0.4, SVG Export Plug-In . SVG Version: 6.00 Build 0)  -->
<!DOCTYPE svg PUBLIC "-//W3C//DTD SVG 1.1//EN" "http://www.w3.org/Graphics/SVG/1.1/DTD/svg11.dtd">
<svg version="1.1" id="icon" xmlns="http://www.w3.org/2000/svg" xmlns:xlink="http://www.w3.org/1999/xlink" x="0px" y="0px"
	 width="32px" height="32px" viewBox="0 0 32 32" enable-background="new 0 0 32 32" xml:space="preserve">
<g id="diamond" opacity="0.5">
	<g>
		<path fill="#969696" d="M31.828,9.247L27.457,0.89c-0.254-0.487-0.914-0.886-1.463-0.886H15.918C15.913,0.004,15.907,0,15.901,0
			c-0.005,0-0.009,0.004-0.015,0.004H5.994c-0.55,0-1.21,0.397-1.469,0.883l-4.36,8.196c-0.259,0.485-0.207,1.248,0.114,1.695
			l15,20.912c0.161,0.226,0.375,0.338,0.589,0.338c0.212,0,0.424-0.109,0.586-0.332l15.248-20.756
			C32.025,10.495,32.084,9.734,31.828,9.247z"/>
	</g>
</g>
</svg>
