<?xml version="1.0" encoding="utf-8"?>
<!-- Generator: Adobe Illustrator 16.0.4, SVG Export Plug-In . SVG Version: 6.00 Build 0)  -->
<!DOCTYPE svg PUBLIC "-//W3C//DTD SVG 1.1//EN" "http://www.w3.org/Graphics/SVG/1.1/DTD/svg11.dtd">
<svg version="1.1" id="icon-favorites" xmlns="http://www.w3.org/2000/svg" xmlns:xlink="http://www.w3.org/1999/xlink" x="0px"
	 y="0px" width="32px" height="32px" viewBox="0 0 32 32" enable-background="new 0 0 32 32" xml:space="preserve">
<path opacity="0.5" fill="#969696" d="M15.999,0.996c-0.895,0-1.71,0.505-2.091,1.294l-3.619,7.515l-8.328,1.238
	c-0.855,0.128-1.565,0.712-1.842,1.512c-0.274,0.801-0.067,1.684,0.537,2.284l6.102,6.097l-1.415,8.45
	c-0.143,0.854,0.226,1.705,0.948,2.203C6.688,31.861,7.155,32,7.622,32c0.385,0,0.77-0.093,1.117-0.279l7.26-3.91l7.261,3.91
	C23.609,31.907,23.994,32,24.377,32c0.467,0,0.934-0.139,1.332-0.411c0.723-0.498,1.09-1.353,0.945-2.203l-1.414-8.45l6.104-6.097
	c0.604-0.601,0.812-1.483,0.536-2.284c-0.276-0.8-0.985-1.384-1.841-1.512l-8.327-1.238l-3.62-7.515
	C17.712,1.501,16.896,0.996,15.999,0.996L15.999,0.996z"/>
</svg>
