<?xml version="1.0" encoding="utf-8"?>
<!-- Generator: Adobe Illustrator 16.0.4, SVG Export Plug-In . SVG Version: 6.00 Build 0)  -->
<!DOCTYPE svg PUBLIC "-//W3C//DTD SVG 1.1//EN" "http://www.w3.org/Graphics/SVG/1.1/DTD/svg11.dtd">
<svg version="1.1" id="icon-download" xmlns="http://www.w3.org/2000/svg" xmlns:xlink="http://www.w3.org/1999/xlink" x="0px"
	 y="0px" width="32px" height="32px" viewBox="0 0 32 32" enable-background="new 0 0 32 32" xml:space="preserve">
<path opacity="0.5" fill="#969696" d="M23.857,8.048C22.461,4.345,19.461,2,14.931,2C9.166,2,5.133,6.28,4.786,11.865
	C2.006,12.754,0,15.59,0,18.801c0,3.932,3.09,7.254,6.747,7.254h0.89c0.189,0,2.115,0,4.588,0l2.984,3.307
	c0.01,0,0.01,0.012,0.01,0.012l0.26,0.271c0.14,0.142,0.32,0.221,0.51,0.211c0.18,0.01,0.36-0.069,0.5-0.211l0.26-0.271
	c0,0,0-0.012,0.01-0.012l3.013-3.307c2.354,0,4.16,0,4.342,0v-0.004C29.117,25.919,32,21.141,32,16.843
	C32,12.225,28.381,8.534,23.857,8.048z"/>
</svg>
